<!DOCTYPE svg PUBLIC "-//W3C//DTD SVG 1.1//EN" "http://www.w3.org/Graphics/SVG/1.1/DTD/svg11.dtd">

<!-- Uploaded to: SVG Repo, www.svgrepo.com, Transformed by: SVG Repo Mixer Tools -->
<svg width="800px" height="800px" viewBox="0 0 24 24" fill="none" xmlns="http://www.w3.org/2000/svg" stroke="#ffffff" stroke-width="0.00024000000000000003">

<g id="SVGRepo_bgCarrier" stroke-width="0"/>

<g id="SVGRepo_tracerCarrier" stroke-linecap="round" stroke-linejoin="round"/>

<g id="SVGRepo_iconCarrier"> <path d="M3.39994 3.4L3.04469 3.0481L3.0489 3.04395L3.39994 3.4ZM3.39994 20.6L3.04804 20.9552L3.04389 20.951L3.39994 20.6ZM20.5999 20.6L20.9552 20.9519L20.951 20.9561L20.5999 20.6ZM20.5999 3.4L20.9518 3.04475L20.956 3.04896L20.5999 3.4ZM5.37327 8.08667L4.87337 8.09692C4.87062 7.96256 4.92206 7.83275 5.01611 7.73676C5.11016 7.64076 5.23888 7.58667 5.37327 7.58667V8.08667ZM12.9066 16.4067H13.4066C13.4066 16.6828 13.1827 16.9067 12.9066 16.9067V16.4067ZM12.9066 13.4333H12.4066C12.4066 13.2921 12.4663 13.1575 12.571 13.0627C12.6757 12.9679 12.8156 12.9218 12.9562 12.9358L12.9066 13.4333ZM16.3533 16.4067V16.9067C16.1359 16.9067 15.9435 16.7663 15.8772 16.5593L16.3533 16.4067ZM18.7199 16.4067L19.2026 16.2762C19.2432 16.4264 19.2116 16.587 19.117 16.7106C19.0223 16.8342 18.8756 16.9067 18.7199 16.9067V16.4067ZM15.2999 12.2333L15.0771 12.681C14.9142 12.5998 14.8081 12.4365 14.8004 12.2546C14.7926 12.0727 14.8844 11.901 15.0399 11.8063L15.2999 12.2333ZM17.1928 10.461L17.6019 10.7486L17.1928 10.461ZM18.2199 8.08V7.58C18.3701 7.58 18.5123 7.6475 18.6073 7.76385C18.7023 7.88019 18.7399 8.03306 18.7098 8.18019L18.2199 8.08ZM16.0733 8.08L15.5921 7.94418C15.6529 7.72876 15.8494 7.58 16.0733 7.58V8.08ZM12.9066 11.3733L12.9596 11.8705C12.8186 11.8856 12.6778 11.84 12.5723 11.7452C12.4668 11.6503 12.4066 11.5152 12.4066 11.3733H12.9066ZM12.9066 8.08667V7.58667C13.1827 7.58667 13.4066 7.81053 13.4066 8.08667H12.9066ZM10.7533 8.08667H10.2533C10.2533 7.81053 10.4771 7.58667 10.7533 7.58667V8.08667ZM10.7533 13.8467H11.2533C11.2533 14.0006 11.1823 14.146 11.061 14.2408C10.9396 14.3355 10.7814 14.3691 10.632 14.3317L10.7533 13.8467ZM7.6666 8.08667V7.58667C7.939 7.58667 8.16127 7.80471 8.16651 8.07705L7.6666 8.08667ZM1.49994 11.6C1.49994 9.35073 1.49889 7.61455 1.67936 6.26617C1.86175 4.90342 2.23763 3.8629 3.04471 3.04813L3.75516 3.75187C3.16225 4.35043 2.83813 5.14658 2.67052 6.39883C2.50099 7.66545 2.49994 9.3226 2.49994 11.6H1.49994ZM1.49994 12.4V11.6H2.49994V12.4H1.49994ZM3.04389 20.951C2.23759 20.1332 1.86176 19.0917 1.67936 17.7288C1.49889 16.3805 1.49994 14.646 1.49994 12.4H2.49994C2.49994 14.674 2.50099 16.3295 2.67052 17.5962C2.83811 18.8483 3.16229 19.6468 3.75599 20.249L3.04389 20.951ZM11.5999 22.5C9.35067 22.5 7.61449 22.5011 6.26611 22.3206C4.90335 22.1382 3.86284 21.7623 3.04807 20.9552L3.75181 20.2448C4.35037 20.8377 5.14652 21.1618 6.39877 21.3294C7.66539 21.4989 9.32254 21.5 11.5999 21.5V22.5ZM12.3999 22.5H11.5999V21.5H12.3999V22.5ZM20.951 20.9561C20.1332 21.7624 19.0916 22.1382 17.7288 22.3206C16.3804 22.5011 14.6459 22.5 12.3999 22.5V21.5C14.674 21.5 16.3295 21.4989 17.5961 21.3294C18.8483 21.1618 19.6467 20.8376 20.2489 20.2439L20.951 20.9561ZM22.4999 12.4C22.4999 14.6493 22.501 16.3855 22.3205 17.7338C22.1381 19.0966 21.7623 20.1371 20.9552 20.9519L20.2447 20.2481C20.8376 19.6496 21.1618 18.8534 21.3294 17.6012C21.4989 16.3345 21.4999 14.6774 21.4999 12.4H22.4999ZM22.4999 11.6V12.4H21.4999V11.6H22.4999ZM20.956 3.04896C21.7623 3.86678 22.1381 4.90834 22.3205 6.27117C22.501 7.61954 22.4999 9.35404 22.4999 11.6H21.4999C21.4999 9.32596 21.4989 7.67046 21.3294 6.40383C21.1618 5.15166 20.8376 4.35322 20.2439 3.75104L20.956 3.04896ZM12.3999 1.5C14.6492 1.5 16.3854 1.49895 17.7338 1.67942C19.0965 1.86181 20.137 2.23769 20.9518 3.04478L20.2481 3.75522C19.6495 3.16231 18.8534 2.83819 17.6011 2.67058C16.3345 2.50105 14.6773 2.5 12.3999 2.5V1.5ZM11.5999 1.5H12.3999V2.5H11.5999V1.5ZM3.0489 3.04395C3.86672 2.23765 4.90828 1.86183 6.27111 1.67942C7.61948 1.49895 9.35398 1.5 11.5999 1.5V2.5C9.3259 2.5 7.67039 2.50105 6.40377 2.67058C5.1516 2.83817 4.35316 3.16235 3.75098 3.75605L3.0489 3.04395ZM12.6399 16.9067C10.2377 16.9067 8.30046 16.0798 6.95797 14.5232C5.62543 12.9782 4.92825 10.7719 4.87337 8.09692L5.87317 8.07641C5.92496 10.6014 6.5811 12.5551 7.71523 13.8701C8.83941 15.1735 10.4822 15.9067 12.6399 15.9067V16.9067ZM12.6466 16.9067H12.6399V15.9067H12.6466V16.9067ZM12.9066 16.9067H12.6466V15.9067H12.9066V16.9067ZM13.4066 13.4333V16.4067H12.4066V13.4333H13.4066ZM15.8772 16.5593C15.4192 15.1312 14.2955 14.0741 12.857 13.9309L12.9562 12.9358C14.8643 13.1259 16.274 14.5221 16.8294 16.254L15.8772 16.5593ZM18.7199 16.9067H16.3533V15.9067H18.7199V16.9067ZM17.8441 13.6364C18.4784 14.4104 18.9414 15.3101 19.2026 16.2762L18.2373 16.5372C18.013 15.7076 17.6154 14.9349 17.0706 14.2703L17.8441 13.6364ZM15.5227 11.7857C16.4186 12.2316 17.2098 12.8624 17.8441 13.6364L17.0706 14.2703C16.5259 13.6056 15.8465 13.0639 15.0771 12.681L15.5227 11.7857ZM17.6019 10.7486C17.0599 11.5195 16.3648 12.1703 15.56 12.6604L15.0399 11.8063C15.7273 11.3877 16.3209 10.8318 16.7838 10.1735L17.6019 10.7486ZM18.7098 8.18019C18.521 9.10338 18.1438 9.97773 17.6019 10.7486L16.7838 10.1735C17.2467 9.51507 17.5688 8.76831 17.7301 7.97982L18.7098 8.18019ZM16.0733 7.58H18.2199V8.58H16.0733V7.58ZM12.8536 10.8762C13.3501 10.8232 13.9226 10.4996 14.4449 9.94981C14.9606 9.40692 15.3817 8.68939 15.5921 7.94418L16.5545 8.21582C16.2981 9.12394 15.7926 9.98308 15.17 10.6385C14.5539 11.287 13.7765 11.7834 12.9596 11.8705L12.8536 10.8762ZM13.4066 8.08667V11.3733H12.4066V8.08667H13.4066ZM10.7533 7.58667H12.9066V8.58667H10.7533V7.58667ZM10.2533 13.8467V8.08667H11.2533V13.8467H10.2533ZM8.16651 8.07705C8.23719 11.7526 9.83535 13.1018 10.8745 13.3616L10.632 14.3317C9.00453 13.9249 7.24268 12.0474 7.1667 8.09628L8.16651 8.07705ZM5.37327 7.58667H7.6666V8.58667H5.37327V7.58667Z" fill="#ffffff"/> </g>

</svg>