<?xml version="1.0" encoding="utf-8"?>

<!DOCTYPE svg PUBLIC "-//W3C//DTD SVG 1.1//EN" "http://www.w3.org/Graphics/SVG/1.1/DTD/svg11.dtd">
<!-- Uploaded to: SVG Repo, www.svgrepo.com, Generator: SVG Repo Mixer Tools -->
<svg height="800px" width="800px" version="1.1" id="_x32_" xmlns="http://www.w3.org/2000/svg" xmlns:xlink="http://www.w3.org/1999/xlink" 
	 viewBox="0 0 512 512"  xml:space="preserve">
<style type="text/css">
	.st0{fill:#0f3a8c;}
</style>
<g>
	<path class="st0" d="M356.875,103.922c27.761-10.39,41.815-41.317,31.363-69.109C377.849,7.082,346.901-6.971,319.17,3.429
		c-27.751,10.42-41.785,41.347-31.394,69.108C298.186,100.299,329.134,114.363,356.875,103.922z"/>
	<path class="st0" d="M395.769,311.136V167.261c-0.367-21.798-18.358-39.159-40.156-38.772
		c-21.808,0.376-39.201,18.328-38.824,40.136v129.761l-85.29,15.57c-18.236,3.094-32.911,15.845-33.002,35.232l2.595,129.984
		c-0.05,15.142,12.192,27.517,27.386,27.6c15.173,0.02,27.538-12.212,27.598-27.395l7.988-102.05h73.475
		C378.795,377.222,395.891,352.372,395.769,311.136z"/>
	<path class="st0" d="M461.529,233.388c-11.245-2.412-22.306,4.792-24.698,16.058l-22.204,104.605
		c-1.71,7.367-3.918,13.199-6.402,17.758c-3.837,6.818-7.918,10.888-14.054,14.38c-6.117,3.398-14.888,5.984-27.284,6.95
		c-3.277,0.274-6.778,0.468-10.523,0.498h-58.758c-11.52,0.183-20.668,9.739-20.476,21.249c0.194,11.51,9.688,20.668,21.208,20.485
		h58.453c4.601-0.041,9.078-0.336,13.403-0.662c10.98-0.895,21.136-2.778,30.601-6.054c14.166-4.844,26.683-13.22,35.842-24.658
		c9.24-11.388,15.01-25.167,18.592-40.493l0.062-0.244l22.306-105.174C479.99,246.82,472.795,235.748,461.529,233.388z"/>
	<polygon class="st0" points="209.356,225.735 209.356,195.897 101.505,195.897 61.674,95.679 33.943,106.69 81.264,225.735 	"/>
	<polygon class="st0" points="251.039,240.369 35.673,240.369 35.673,251.481 35.673,282.011 35.673,512 73.886,512 73.886,282.011 
		251.039,282.011 	"/>
</g>
</svg>